<mxfile host="Electron" agent="Mozilla/5.0 (Macintosh; Intel Mac OS X 10_15_7) AppleWebKit/537.36 (KHTML, like Gecko) draw.io/26.1.1 Chrome/132.0.6834.210 Electron/34.3.3 Safari/537.36" version="26.1.1">
  <diagram name="Page-1" id="-H_mtQnk-PTXWXPvYvuk">
    <mxGraphModel dx="1272" dy="969" grid="1" gridSize="10" guides="1" tooltips="1" connect="1" arrows="1" fold="1" page="1" pageScale="1" pageWidth="1169" pageHeight="827" math="0" shadow="0">
      <root>
        <mxCell id="0" />
        <mxCell id="1" parent="0" />
        <mxCell id="k_xwfJecmbTnGhpivg_c-1" style="edgeStyle=orthogonalEdgeStyle;rounded=0;orthogonalLoop=1;jettySize=auto;html=1;exitX=0.5;exitY=1;exitDx=0;exitDy=0;entryX=0.5;entryY=0;entryDx=0;entryDy=0;" parent="1" source="zA23MoTUsTF4_91t8viU-3" target="dbREd8kYVU3tzgiQIXqs-3" edge="1">
          <mxGeometry relative="1" as="geometry" />
        </mxCell>
        <mxCell id="8a7BIC_nl0AnSNakPIhv-14" style="edgeStyle=orthogonalEdgeStyle;rounded=0;orthogonalLoop=1;jettySize=auto;html=1;exitX=1;exitY=0.5;exitDx=0;exitDy=0;entryX=0;entryY=0.5;entryDx=0;entryDy=0;" edge="1" parent="1" source="zA23MoTUsTF4_91t8viU-3" target="8a7BIC_nl0AnSNakPIhv-12">
          <mxGeometry relative="1" as="geometry" />
        </mxCell>
        <mxCell id="zA23MoTUsTF4_91t8viU-3" value="pymongo-api" style="rounded=1;whiteSpace=wrap;html=1;" parent="1" vertex="1">
          <mxGeometry x="480" y="180" width="120" height="60" as="geometry" />
        </mxCell>
        <mxCell id="dbREd8kYVU3tzgiQIXqs-1" value="mongodb shard 000" style="shape=cylinder3;whiteSpace=wrap;html=1;boundedLbl=1;backgroundOutline=1;size=15;" parent="1" vertex="1">
          <mxGeometry x="190" y="760" width="60" height="80" as="geometry" />
        </mxCell>
        <mxCell id="_al5clU8z6GfftOGp_AF-12" value="" style="edgeStyle=orthogonalEdgeStyle;rounded=0;orthogonalLoop=1;jettySize=auto;html=1;" parent="1" source="dbREd8kYVU3tzgiQIXqs-2" target="_al5clU8z6GfftOGp_AF-4" edge="1">
          <mxGeometry relative="1" as="geometry" />
        </mxCell>
        <mxCell id="dbREd8kYVU3tzgiQIXqs-2" value="mongodb shard 100" style="shape=cylinder3;whiteSpace=wrap;html=1;boundedLbl=1;backgroundOutline=1;size=15;" parent="1" vertex="1">
          <mxGeometry x="830" y="760" width="60" height="80" as="geometry" />
        </mxCell>
        <mxCell id="AS32IQcmRUs63zj48uzP-3" style="edgeStyle=orthogonalEdgeStyle;rounded=0;orthogonalLoop=1;jettySize=auto;html=1;exitX=0.5;exitY=1;exitDx=0;exitDy=0;entryX=0.5;entryY=0;entryDx=0;entryDy=0;" parent="1" source="dbREd8kYVU3tzgiQIXqs-3" target="dbREd8kYVU3tzgiQIXqs-5" edge="1">
          <mxGeometry relative="1" as="geometry" />
        </mxCell>
        <mxCell id="dbREd8kYVU3tzgiQIXqs-3" value="Драйвер" style="rounded=1;whiteSpace=wrap;html=1;" parent="1" vertex="1">
          <mxGeometry x="480" y="300" width="120" height="40" as="geometry" />
        </mxCell>
        <mxCell id="AS32IQcmRUs63zj48uzP-5" style="edgeStyle=orthogonalEdgeStyle;rounded=0;orthogonalLoop=1;jettySize=auto;html=1;exitX=1;exitY=0.5;exitDx=0;exitDy=0;entryX=0.5;entryY=0;entryDx=0;entryDy=0;" parent="1" source="dbREd8kYVU3tzgiQIXqs-5" target="pXJ7bdGz6Sk2BNIV2tW--5" edge="1">
          <mxGeometry relative="1" as="geometry" />
        </mxCell>
        <mxCell id="AS32IQcmRUs63zj48uzP-6" style="edgeStyle=orthogonalEdgeStyle;rounded=0;orthogonalLoop=1;jettySize=auto;html=1;exitX=0;exitY=0.5;exitDx=0;exitDy=0;entryX=0.5;entryY=0;entryDx=0;entryDy=0;" parent="1" source="dbREd8kYVU3tzgiQIXqs-5" target="pXJ7bdGz6Sk2BNIV2tW--1" edge="1">
          <mxGeometry relative="1" as="geometry" />
        </mxCell>
        <mxCell id="AS32IQcmRUs63zj48uzP-7" style="edgeStyle=orthogonalEdgeStyle;rounded=0;orthogonalLoop=1;jettySize=auto;html=1;exitX=0.5;exitY=1;exitDx=0;exitDy=0;" parent="1" source="dbREd8kYVU3tzgiQIXqs-5" target="dbREd8kYVU3tzgiQIXqs-7" edge="1">
          <mxGeometry relative="1" as="geometry" />
        </mxCell>
        <mxCell id="dbREd8kYVU3tzgiQIXqs-5" value="mongodb router" style="rounded=1;whiteSpace=wrap;html=1;" parent="1" vertex="1">
          <mxGeometry x="480" y="640" width="120" height="40" as="geometry" />
        </mxCell>
        <mxCell id="dbREd8kYVU3tzgiQIXqs-13" style="edgeStyle=orthogonalEdgeStyle;rounded=0;orthogonalLoop=1;jettySize=auto;html=1;exitX=0.5;exitY=1;exitDx=0;exitDy=0;" parent="1" edge="1">
          <mxGeometry relative="1" as="geometry">
            <mxPoint x="1490" y="430" as="sourcePoint" />
            <mxPoint x="1490" y="510" as="targetPoint" />
          </mxGeometry>
        </mxCell>
        <mxCell id="dbREd8kYVU3tzgiQIXqs-7" value="mongodb config server" style="rounded=1;whiteSpace=wrap;html=1;" parent="1" vertex="1">
          <mxGeometry x="480" y="780" width="120" height="40" as="geometry" />
        </mxCell>
        <mxCell id="_al5clU8z6GfftOGp_AF-1" value="mongodb shard 001" style="shape=cylinder3;whiteSpace=wrap;html=1;boundedLbl=1;backgroundOutline=1;size=15;" parent="1" vertex="1">
          <mxGeometry x="70" y="760" width="60" height="80" as="geometry" />
        </mxCell>
        <mxCell id="_al5clU8z6GfftOGp_AF-2" value="mongodb shard 002" style="shape=cylinder3;whiteSpace=wrap;html=1;boundedLbl=1;backgroundOutline=1;size=15;" parent="1" vertex="1">
          <mxGeometry x="310" y="760" width="60" height="80" as="geometry" />
        </mxCell>
        <mxCell id="_al5clU8z6GfftOGp_AF-3" value="mongodb shard 101" style="shape=cylinder3;whiteSpace=wrap;html=1;boundedLbl=1;backgroundOutline=1;size=15;" parent="1" vertex="1">
          <mxGeometry x="710" y="760" width="60" height="80" as="geometry" />
        </mxCell>
        <mxCell id="_al5clU8z6GfftOGp_AF-4" value="mongodb shard 102" style="shape=cylinder3;whiteSpace=wrap;html=1;boundedLbl=1;backgroundOutline=1;size=15;" parent="1" vertex="1">
          <mxGeometry x="950" y="760" width="60" height="80" as="geometry" />
        </mxCell>
        <mxCell id="_al5clU8z6GfftOGp_AF-9" style="edgeStyle=orthogonalEdgeStyle;rounded=0;orthogonalLoop=1;jettySize=auto;html=1;exitX=0;exitY=0.5;exitDx=0;exitDy=0;exitPerimeter=0;entryX=1;entryY=0.5;entryDx=0;entryDy=0;entryPerimeter=0;" parent="1" source="dbREd8kYVU3tzgiQIXqs-1" target="_al5clU8z6GfftOGp_AF-1" edge="1">
          <mxGeometry relative="1" as="geometry" />
        </mxCell>
        <mxCell id="_al5clU8z6GfftOGp_AF-10" style="edgeStyle=orthogonalEdgeStyle;rounded=0;orthogonalLoop=1;jettySize=auto;html=1;exitX=1;exitY=0.5;exitDx=0;exitDy=0;exitPerimeter=0;entryX=0;entryY=0.5;entryDx=0;entryDy=0;entryPerimeter=0;" parent="1" source="dbREd8kYVU3tzgiQIXqs-1" target="_al5clU8z6GfftOGp_AF-2" edge="1">
          <mxGeometry relative="1" as="geometry" />
        </mxCell>
        <mxCell id="_al5clU8z6GfftOGp_AF-11" style="edgeStyle=orthogonalEdgeStyle;rounded=0;orthogonalLoop=1;jettySize=auto;html=1;exitX=0;exitY=0.5;exitDx=0;exitDy=0;exitPerimeter=0;entryX=1;entryY=0.5;entryDx=0;entryDy=0;entryPerimeter=0;" parent="1" source="dbREd8kYVU3tzgiQIXqs-2" target="_al5clU8z6GfftOGp_AF-3" edge="1">
          <mxGeometry relative="1" as="geometry" />
        </mxCell>
        <mxCell id="AS32IQcmRUs63zj48uzP-8" style="edgeStyle=orthogonalEdgeStyle;rounded=0;orthogonalLoop=1;jettySize=auto;html=1;exitX=1;exitY=0.5;exitDx=0;exitDy=0;entryX=0;entryY=0.5;entryDx=0;entryDy=0;" parent="1" source="pXJ7bdGz6Sk2BNIV2tW--1" target="dbREd8kYVU3tzgiQIXqs-7" edge="1">
          <mxGeometry relative="1" as="geometry" />
        </mxCell>
        <mxCell id="pXJ7bdGz6Sk2BNIV2tW--1" value="replicaset 0" style="swimlane;whiteSpace=wrap;html=1;" parent="1" vertex="1">
          <mxGeometry x="40" y="720" width="360" height="160" as="geometry" />
        </mxCell>
        <mxCell id="AS32IQcmRUs63zj48uzP-9" style="edgeStyle=orthogonalEdgeStyle;rounded=0;orthogonalLoop=1;jettySize=auto;html=1;exitX=0;exitY=0.5;exitDx=0;exitDy=0;entryX=1;entryY=0.5;entryDx=0;entryDy=0;" parent="1" source="pXJ7bdGz6Sk2BNIV2tW--5" target="dbREd8kYVU3tzgiQIXqs-7" edge="1">
          <mxGeometry relative="1" as="geometry" />
        </mxCell>
        <mxCell id="pXJ7bdGz6Sk2BNIV2tW--5" value="replicaset 1" style="swimlane;whiteSpace=wrap;html=1;" parent="1" vertex="1">
          <mxGeometry x="680" y="720" width="360" height="160" as="geometry" />
        </mxCell>
        <mxCell id="8a7BIC_nl0AnSNakPIhv-13" value="" style="group" vertex="1" connectable="0" parent="1">
          <mxGeometry x="730" y="180" width="280" height="400" as="geometry" />
        </mxCell>
        <mxCell id="8a7BIC_nl0AnSNakPIhv-1" value="redis 2" style="shape=cylinder3;whiteSpace=wrap;html=1;boundedLbl=1;backgroundOutline=1;size=15;" vertex="1" parent="8a7BIC_nl0AnSNakPIhv-13">
          <mxGeometry x="40" y="280" width="60" height="80" as="geometry" />
        </mxCell>
        <mxCell id="8a7BIC_nl0AnSNakPIhv-3" value="redis 1" style="shape=cylinder3;whiteSpace=wrap;html=1;boundedLbl=1;backgroundOutline=1;size=15;" vertex="1" parent="8a7BIC_nl0AnSNakPIhv-13">
          <mxGeometry x="40" y="160" width="60" height="80" as="geometry" />
        </mxCell>
        <mxCell id="8a7BIC_nl0AnSNakPIhv-5" value="redis 0" style="shape=cylinder3;whiteSpace=wrap;html=1;boundedLbl=1;backgroundOutline=1;size=15;" vertex="1" parent="8a7BIC_nl0AnSNakPIhv-13">
          <mxGeometry x="40" y="40" width="60" height="80" as="geometry" />
        </mxCell>
        <mxCell id="8a7BIC_nl0AnSNakPIhv-9" value="redis 5" style="shape=cylinder3;whiteSpace=wrap;html=1;boundedLbl=1;backgroundOutline=1;size=15;" vertex="1" parent="8a7BIC_nl0AnSNakPIhv-13">
          <mxGeometry x="180" y="280" width="60" height="80" as="geometry" />
        </mxCell>
        <mxCell id="8a7BIC_nl0AnSNakPIhv-10" value="redis 4" style="shape=cylinder3;whiteSpace=wrap;html=1;boundedLbl=1;backgroundOutline=1;size=15;" vertex="1" parent="8a7BIC_nl0AnSNakPIhv-13">
          <mxGeometry x="180" y="160" width="60" height="80" as="geometry" />
        </mxCell>
        <mxCell id="8a7BIC_nl0AnSNakPIhv-11" value="redis 3" style="shape=cylinder3;whiteSpace=wrap;html=1;boundedLbl=1;backgroundOutline=1;size=15;" vertex="1" parent="8a7BIC_nl0AnSNakPIhv-13">
          <mxGeometry x="180" y="40" width="60" height="80" as="geometry" />
        </mxCell>
        <mxCell id="8a7BIC_nl0AnSNakPIhv-12" value="Redis Cluster" style="swimlane;whiteSpace=wrap;html=1;" vertex="1" parent="8a7BIC_nl0AnSNakPIhv-13">
          <mxGeometry width="280" height="400" as="geometry" />
        </mxCell>
        <mxCell id="8a7BIC_nl0AnSNakPIhv-31" value="" style="endArrow=none;dashed=1;html=1;rounded=0;entryX=0;entryY=0.5;entryDx=0;entryDy=0;entryPerimeter=0;exitX=1;exitY=0.5;exitDx=0;exitDy=0;exitPerimeter=0;" edge="1" parent="8a7BIC_nl0AnSNakPIhv-12">
          <mxGeometry width="50" height="50" relative="1" as="geometry">
            <mxPoint x="100" y="320" as="sourcePoint" />
            <mxPoint x="180" y="200" as="targetPoint" />
          </mxGeometry>
        </mxCell>
        <mxCell id="8a7BIC_nl0AnSNakPIhv-33" value="" style="endArrow=none;dashed=1;html=1;rounded=0;entryX=0;entryY=0.5;entryDx=0;entryDy=0;entryPerimeter=0;exitX=1;exitY=0.5;exitDx=0;exitDy=0;exitPerimeter=0;" edge="1" parent="8a7BIC_nl0AnSNakPIhv-12">
          <mxGeometry width="50" height="50" relative="1" as="geometry">
            <mxPoint x="100" y="200" as="sourcePoint" />
            <mxPoint x="180" y="320" as="targetPoint" />
          </mxGeometry>
        </mxCell>
        <mxCell id="8a7BIC_nl0AnSNakPIhv-15" style="edgeStyle=orthogonalEdgeStyle;rounded=0;orthogonalLoop=1;jettySize=auto;html=1;exitX=1;exitY=0.5;exitDx=0;exitDy=0;exitPerimeter=0;entryX=0;entryY=0.5;entryDx=0;entryDy=0;entryPerimeter=0;" edge="1" parent="8a7BIC_nl0AnSNakPIhv-13" source="8a7BIC_nl0AnSNakPIhv-5" target="8a7BIC_nl0AnSNakPIhv-11">
          <mxGeometry relative="1" as="geometry" />
        </mxCell>
        <mxCell id="8a7BIC_nl0AnSNakPIhv-16" style="edgeStyle=orthogonalEdgeStyle;rounded=0;orthogonalLoop=1;jettySize=auto;html=1;exitX=1;exitY=0.5;exitDx=0;exitDy=0;exitPerimeter=0;entryX=0;entryY=0.5;entryDx=0;entryDy=0;entryPerimeter=0;" edge="1" parent="8a7BIC_nl0AnSNakPIhv-13" source="8a7BIC_nl0AnSNakPIhv-3" target="8a7BIC_nl0AnSNakPIhv-10">
          <mxGeometry relative="1" as="geometry" />
        </mxCell>
        <mxCell id="8a7BIC_nl0AnSNakPIhv-17" style="edgeStyle=orthogonalEdgeStyle;rounded=0;orthogonalLoop=1;jettySize=auto;html=1;exitX=1;exitY=0.5;exitDx=0;exitDy=0;exitPerimeter=0;entryX=0;entryY=0.5;entryDx=0;entryDy=0;entryPerimeter=0;" edge="1" parent="8a7BIC_nl0AnSNakPIhv-13" source="8a7BIC_nl0AnSNakPIhv-1" target="8a7BIC_nl0AnSNakPIhv-9">
          <mxGeometry relative="1" as="geometry" />
        </mxCell>
        <mxCell id="8a7BIC_nl0AnSNakPIhv-30" value="" style="endArrow=none;dashed=1;html=1;rounded=0;entryX=0;entryY=0.5;entryDx=0;entryDy=0;entryPerimeter=0;exitX=1;exitY=0.5;exitDx=0;exitDy=0;exitPerimeter=0;" edge="1" parent="8a7BIC_nl0AnSNakPIhv-13" source="8a7BIC_nl0AnSNakPIhv-3" target="8a7BIC_nl0AnSNakPIhv-11">
          <mxGeometry width="50" height="50" relative="1" as="geometry">
            <mxPoint x="115" y="180" as="sourcePoint" />
            <mxPoint x="165" y="130" as="targetPoint" />
          </mxGeometry>
        </mxCell>
        <mxCell id="8a7BIC_nl0AnSNakPIhv-32" value="" style="endArrow=none;dashed=1;html=1;rounded=0;entryX=0;entryY=0.5;entryDx=0;entryDy=0;entryPerimeter=0;exitX=1;exitY=0.5;exitDx=0;exitDy=0;exitPerimeter=0;" edge="1" parent="8a7BIC_nl0AnSNakPIhv-13" source="8a7BIC_nl0AnSNakPIhv-5" target="8a7BIC_nl0AnSNakPIhv-10">
          <mxGeometry width="50" height="50" relative="1" as="geometry">
            <mxPoint x="110" y="210" as="sourcePoint" />
            <mxPoint x="190" y="90" as="targetPoint" />
          </mxGeometry>
        </mxCell>
        <mxCell id="8a7BIC_nl0AnSNakPIhv-37" value="" style="endArrow=none;dashed=1;html=1;rounded=0;entryX=0;entryY=0.5;entryDx=0;entryDy=0;entryPerimeter=0;exitX=1;exitY=0.5;exitDx=0;exitDy=0;exitPerimeter=0;" edge="1" parent="8a7BIC_nl0AnSNakPIhv-13" source="8a7BIC_nl0AnSNakPIhv-5" target="8a7BIC_nl0AnSNakPIhv-9">
          <mxGeometry width="50" height="50" relative="1" as="geometry">
            <mxPoint x="110" y="90" as="sourcePoint" />
            <mxPoint x="190" y="210" as="targetPoint" />
          </mxGeometry>
        </mxCell>
        <mxCell id="8a7BIC_nl0AnSNakPIhv-38" value="" style="endArrow=none;dashed=1;html=1;rounded=0;entryX=0;entryY=0.5;entryDx=0;entryDy=0;entryPerimeter=0;exitX=1;exitY=0.5;exitDx=0;exitDy=0;exitPerimeter=0;" edge="1" parent="8a7BIC_nl0AnSNakPIhv-13" source="8a7BIC_nl0AnSNakPIhv-1" target="8a7BIC_nl0AnSNakPIhv-11">
          <mxGeometry width="50" height="50" relative="1" as="geometry">
            <mxPoint x="120" y="100" as="sourcePoint" />
            <mxPoint x="200" y="220" as="targetPoint" />
          </mxGeometry>
        </mxCell>
      </root>
    </mxGraphModel>
  </diagram>
</mxfile>
